<?xml version="1.0" encoding="UTF-8" standalone="no"?>
<svg
   viewBox="0 0 100 100"
   fill="none"
   x="0px"
   y="0px"
   version="1.1"
   id="svg67"
   sodipodi:docname="noun-medal-4567887.svg"
   width="100"
   height="100"
   inkscape:version="1.2.2 (732a01da63, 2022-12-09)"
   xmlns:inkscape="http://www.inkscape.org/namespaces/inkscape"
   xmlns:sodipodi="http://sodipodi.sourceforge.net/DTD/sodipodi-0.dtd"
   xmlns="http://www.w3.org/2000/svg"
   xmlns:svg="http://www.w3.org/2000/svg">
  <defs
     id="defs71">
    <filter
       style="color-interpolation-filters:sRGB;"
       inkscape:label="Invert"
       id="filter203"
       x="0"
       y="0"
       width="1"
       height="1">
      <feColorMatrix
         type="hueRotate"
         values="180"
         result="color1"
         id="feColorMatrix199" />
      <feColorMatrix
         values="-1 0 0 0 1 0 -1 0 0 1 0 0 -1 0 1 -0.21 -0.72 -0.07 2 0 "
         result="color2"
         id="feColorMatrix201" />
    </filter>
    <filter
       style="color-interpolation-filters:sRGB;"
       inkscape:label="Invert"
       id="filter209"
       x="0"
       y="0"
       width="1"
       height="1">
      <feColorMatrix
         type="hueRotate"
         values="180"
         result="color1"
         id="feColorMatrix205" />
      <feColorMatrix
         values="-1 0 0 0 1 0 -1 0 0 1 0 0 -1 0 1 -0.21 -0.72 -0.07 2 0 "
         result="color2"
         id="feColorMatrix207" />
    </filter>
  </defs>
  <sodipodi:namedview
     id="namedview69"
     pagecolor="#505050"
     bordercolor="#eeeeee"
     borderopacity="1"
     inkscape:showpageshadow="0"
     inkscape:pageopacity="0"
     inkscape:pagecheckerboard="0"
     inkscape:deskcolor="#505050"
     showgrid="false"
     inkscape:zoom="6.456"
     inkscape:cx="49.953532"
     inkscape:cy="37.716853"
     inkscape:window-width="1920"
     inkscape:window-height="1010"
     inkscape:window-x="1913"
     inkscape:window-y="-6"
     inkscape:window-maximized="1"
     inkscape:current-layer="svg67" />
  <path
     d="m 59.903346,13.687732 v 6.602231 h 6.60223 v 19.806691 h -6.60223 v 6.602231 H 40.096654 v -6.602231 h -6.60223 V 20.289963 h 6.60223 v -6.602231 z"
     fill="#000000"
     id="path59"
     style="stroke-width:1.65056;filter:url(#filter209)" />
  <path
     fill-rule="evenodd"
     clip-rule="evenodd"
     d="M 33.494424,0.48327138 V 7.0855019 h -6.602231 v 6.6022301 h -6.60223 v 33.011153 h 6.60223 v 6.60223 h 6.602231 v 6.602231 h -6.602231 v 39.613383 h 6.602231 v -6.602231 h 6.60223 v -6.60223 h 4.951673 v -6.602231 h 6.602231 v 6.602231 h 6.60223 v 6.60223 h 6.602231 v 6.602231 h 6.60223 V 59.903346 h -4.951673 v -6.602231 h 6.602231 v -6.60223 h 6.60223 V 13.687732 h -6.60223 V 7.0855019 H 66.505576 V 0.48327138 Z M 58.252788,86.312268 v -6.602231 h -6.60223 v -6.60223 h -6.602231 v 6.60223 h -6.60223 v 6.602231 H 33.494424 V 59.903346 H 64.855019 V 86.312268 Z M 59.903346,7.0855019 H 40.096654 v 6.6022301 h -6.60223 v 6.602231 h -6.602231 v 19.806691 h 6.602231 v 6.602231 h 6.60223 v 6.60223 h 19.806692 v -6.60223 h 6.60223 v -6.602231 h 6.602231 V 20.289963 h -6.602231 v -6.602231 h -6.60223 z"
     fill="#000000"
     id="path61"
     style="stroke-width:1.65056;filter:url(#filter203)" />
</svg>
